<?xml version="1.0" encoding="utf-8"?>
<!-- Generator: Adobe Illustrator 16.0.0, SVG Export Plug-In . SVG Version: 6.00 Build 0)  -->
<!DOCTYPE svg PUBLIC "-//W3C//DTD SVG 1.1//EN" "http://www.w3.org/Graphics/SVG/1.1/DTD/svg11.dtd">
<svg version="1.1" xmlns="http://www.w3.org/2000/svg" xmlns:xlink="http://www.w3.org/1999/xlink" x="0px" y="0px" width="762px"
	 height="160px" viewBox="0 0 762 160" enable-background="new 0 0 762 160" xml:space="preserve">
<g id="Layer_2_1_" display="none">
	<rect x="-24.5" y="-21.5" display="inline" fill="#FF0000" stroke="#000000" stroke-miterlimit="10" width="835" height="223"/>
</g>
<g id="Layer_1">
	<g id="Layer_1_1_" display="none">
		
			<rect x="-410.333" y="-295.667" display="inline" fill="#454545" stroke="#000000" stroke-miterlimit="10" width="1950" height="1089"/>
	</g>
	<g id="Layer_2">
		<rect x="107.667" y="14.333" fill="none" width="313" height="45"/>
		<g enable-background="new    ">
			<path fill="#FFFFFF" d="M137.733,28.329c-3.682,0-5.17-2.497-5.17-5.795c0-3.137,1.537-5.794,5.17-5.794
				c3.682,0,5.17,2.497,5.17,5.794C142.903,25.672,141.366,28.329,137.733,28.329z M137.733,17.509
				c-2.657,0-4.273,1.824-4.273,5.025s1.616,5.026,4.273,5.026s4.274-1.825,4.274-5.026S140.39,17.509,137.733,17.509z"/>
			<path fill="#FFFFFF" d="M144.595,27.433h1.281l0.064-9.796h-1.345v-0.704h3.713c2.273,0,3.698,0.704,3.698,2.881
				c0,2.129-1.777,2.913-2.609,2.961v0.032c0.625,0.128,1.024,0.721,1.361,1.28l1.249,2.097c0.624,1.041,0.848,1.249,1.376,1.249
				c0.288,0,0.448-0.032,0.592-0.064v0.769c-0.192,0.032-0.512,0.064-0.752,0.064c-0.816,0-1.088-0.129-1.568-0.929l-1.713-2.881
				c-0.528-0.896-0.896-1.345-1.777-1.345h-1.36l-0.032,4.386h1.457v0.704h-3.633V27.433z M148.34,22.278
				c1.457,0,2.769-0.784,2.769-2.369c0-1.633-0.928-2.272-2.833-2.272h-1.441l-0.032,4.642H148.34z"/>
			<path fill="#FFFFFF" d="M155.075,28.137v-0.704h1.28l0.064-9.796h-1.344v-0.704h3.521v0.704h-1.28l-0.064,9.796h1.344v0.704
				H155.075z"/>
			<path fill="#FFFFFF" d="M170.663,23.463v0.704h-1.313l-0.064,3.729c-0.752,0.145-1.873,0.433-3.217,0.433
				c-3.265,0-5.666-1.889-5.666-5.795c0-3.665,2.433-5.794,5.938-5.794c1.296,0,2.225,0.192,3.265,0.528v2.161h-0.833v-1.553
				c-0.528-0.208-1.36-0.368-2.369-0.368c-3.186,0-5.106,1.952-5.106,5.122c0,3.089,1.889,4.93,4.882,4.93
				c0.912,0,1.712-0.128,2.273-0.256l0.064-3.138h-1.425v-0.704H170.663z"/>
			<path fill="#FFFFFF" d="M171.971,28.137v-0.704h1.28l0.064-9.796h-1.344v-0.704h3.521v0.704h-1.28l-0.064,9.796h1.344v0.704
				H171.971z"/>
			<path fill="#FFFFFF" d="M177.058,27.433h1.296l0.064-9.796h-1.521v-0.704h2.433l6.819,9.331c0.128,0.192,0.24,0.4,0.336,0.608
				h0.032l0.048-9.235h-1.568v-0.704h3.649v0.704h-1.232l-0.08,10.5h-0.896l-6.835-9.364c-0.112-0.159-0.24-0.368-0.32-0.576h-0.032
				l-0.064,9.236h1.473v0.704h-3.602V27.433z"/>
			<path fill="#FFFFFF" d="M188.981,27.433h1.073l4.322-10.5h0.896l3.842,10.5h1.168v0.704h-3.521v-0.704h1.393l-1.457-3.97h-4.162
				l-1.585,3.97h1.489v0.704h-3.458V27.433z M194.936,18.564c-0.08-0.208-0.16-0.399-0.192-0.607h-0.032
				c-0.032,0.208-0.112,0.399-0.192,0.607l-1.697,4.194h3.617L194.936,18.564z"/>
			<path fill="#FFFFFF" d="M201.205,28.137v-0.704h1.281l0.064-9.796h-1.345v-0.704h3.521v0.704h-1.281l-0.064,9.796h4.434
				l0.128-1.665h0.768l-0.128,2.369H201.205z"/>
			<path fill="#FFFFFF" d="M223.544,25.576l-0.016,2.32c-0.752,0.145-1.873,0.433-3.217,0.433c-3.265,0-5.666-1.889-5.666-5.795
				c0-3.665,2.433-5.794,5.938-5.794c1.104,0,2.257,0.192,3.121,0.512l-0.032,2.241h-0.832l0.032-1.681
				c-0.704-0.192-1.44-0.304-2.353-0.304c-2.993,0-4.978,1.952-4.978,5.122c0,3.089,1.889,4.93,4.882,4.93
				c0.912,0,1.712-0.128,2.273-0.256l0.016-1.729H223.544z"/>
			<path fill="#FFFFFF" d="M230.775,28.329c-3.682,0-5.17-2.497-5.17-5.795c0-3.137,1.537-5.794,5.17-5.794
				c3.682,0,5.17,2.497,5.17,5.794C235.945,25.672,234.408,28.329,230.775,28.329z M230.775,17.509
				c-2.657,0-4.273,1.824-4.273,5.025s1.616,5.026,4.273,5.026s4.274-1.825,4.274-5.026S233.432,17.509,230.775,17.509z"/>
			<path fill="#FFFFFF" d="M237.637,27.433h1.281l0.064-9.796h-1.345v-0.704h3.409c1.793,0,3.986,0.384,3.986,3.137
				c0,1.985-1.393,3.378-3.569,3.378h-1.617l-0.032,3.985h1.505v0.704h-3.682V27.433z M239.846,22.679h1.665
				c1.473,0,2.625-0.816,2.625-2.562c0-1.744-1.249-2.48-2.881-2.48h-1.377L239.846,22.679z"/>
			<path fill="#FFFFFF" d="M246.533,27.433h1.281l0.064-9.796h-1.345v-0.704h7.219v2.24h-0.704v-1.536h-4.274l-0.032,4.481h3.89
				v0.704h-3.89l-0.032,4.61h4.434l0.128-1.665h0.768l-0.128,2.369h-7.379V27.433z"/>
			<path fill="#FFFFFF" d="M255.573,27.433h1.296l0.064-9.796h-1.521v-0.704h2.433l6.819,9.331c0.128,0.192,0.24,0.4,0.336,0.608
				h0.032l0.048-9.235h-1.568v-0.704h3.649v0.704h-1.232l-0.08,10.5h-0.896l-6.835-9.364c-0.112-0.159-0.24-0.368-0.32-0.576h-0.032
				l-0.064,9.236h1.473v0.704h-3.602V27.433z"/>
			<path fill="#FFFFFF" d="M268.452,27.433h1.281l0.064-9.796h-1.345v-0.704h3.585v0.704h-1.345l-0.032,4.577h6.435l0.032-4.577
				h-1.408v-0.704h3.585v0.704h-1.281l-0.064,9.796h1.345v0.704h-3.585v-0.704h1.344l0.032-4.514h-6.435l-0.032,4.514h1.409v0.704
				h-3.585V27.433z"/>
			<path fill="#FFFFFF" d="M280.228,27.433h1.073l4.322-10.5h0.896l3.842,10.5h1.168v0.704h-3.521v-0.704h1.393l-1.457-3.97h-4.162
				l-1.585,3.97h1.489v0.704h-3.458V27.433z M286.183,18.564c-0.08-0.208-0.16-0.399-0.192-0.607h-0.032
				c-0.032,0.208-0.112,0.399-0.192,0.607l-1.697,4.194h3.617L286.183,18.564z"/>
			<path fill="#FFFFFF" d="M302.219,23.463v0.704h-1.313l-0.064,3.729c-0.752,0.145-1.873,0.433-3.217,0.433
				c-3.265,0-5.666-1.889-5.666-5.795c0-3.665,2.433-5.794,5.938-5.794c1.296,0,2.225,0.192,3.265,0.528v2.161h-0.833v-1.553
				c-0.528-0.208-1.36-0.368-2.369-0.368c-3.186,0-5.106,1.952-5.106,5.122c0,3.089,1.889,4.93,4.882,4.93
				c0.912,0,1.712-0.128,2.273-0.256l0.064-3.138h-1.425v-0.704H302.219z"/>
			<path fill="#FFFFFF" d="M303.414,27.433h1.281l0.064-9.796h-1.345v-0.704h7.219v2.24h-0.704v-1.536h-4.274l-0.032,4.481h3.89
				v0.704h-3.89l-0.032,4.61h4.434l0.128-1.665h0.768l-0.128,2.369h-7.379V27.433z"/>
			<path fill="#FFFFFF" d="M312.454,27.433h1.296l0.064-9.796h-1.521v-0.704h2.433l6.819,9.331c0.128,0.192,0.24,0.4,0.336,0.608
				h0.032l0.048-9.235h-1.568v-0.704h3.649v0.704h-1.232l-0.08,10.5h-0.896l-6.835-9.364c-0.112-0.159-0.24-0.368-0.32-0.576h-0.032
				l-0.064,9.236h1.473v0.704h-3.602V27.433z"/>
		</g>
		<rect x="508.17" y="124.333" fill="none" width="454.504" height="92"/>
		<g enable-background="new    ">
			<path fill="#FFFFFF" d="M525.921,132.889l0.044,2.112c0.814,0.308,2.135,0.572,3.301,0.572c2.926,0,4.114-1.496,4.114-3.19
				c0-4.687-8.493-1.914-8.493-7.394c0-2.068,1.518-4.29,5.082-4.29c1.738,0,3.169,0.396,4.006,0.704l0.043,2.816h-1.056
				l-0.044-2.024c-0.748-0.264-1.738-0.44-3.037-0.44c-2.376,0-3.762,1.387-3.762,2.993c0,4.687,8.492,1.76,8.492,7.656
				c0,2.465-1.957,4.225-5.236,4.225c-1.672,0-3.498-0.396-4.555-0.726l-0.043-3.015H525.921z"/>
			<path fill="#FFFFFF" d="M537.053,136.365v-0.968h1.76l0.088-13.466h-1.848v-0.969h4.84v0.969h-1.76l-0.088,13.466h1.848v0.968
				H537.053z"/>
			<path fill="#FFFFFF" d="M544.049,135.397h1.781l0.088-13.466h-2.09v-0.969h3.344l9.374,12.828c0.177,0.264,0.33,0.55,0.462,0.836
				h0.045l0.065-12.695h-2.156v-0.969h5.017v0.969h-1.694l-0.11,14.434h-1.232l-9.395-12.872c-0.154-0.22-0.33-0.506-0.44-0.792
				h-0.044l-0.088,12.696h2.024v0.968h-4.95V135.397z"/>
			<path fill="#FFFFFF" d="M574.123,132.845l-0.021,3.19c-1.034,0.198-2.574,0.594-4.422,0.594c-4.489,0-7.789-2.596-7.789-7.965
				c0-5.039,3.344-7.965,8.162-7.965c1.519,0,3.104,0.264,4.291,0.704l-0.044,3.08h-1.144l0.043-2.311
				c-0.968-0.264-1.98-0.418-3.234-0.418c-4.114,0-6.843,2.685-6.843,7.041c0,4.247,2.597,6.777,6.711,6.777
				c1.255,0,2.354-0.176,3.124-0.353l0.022-2.376H574.123z"/>
			<path fill="#FFFFFF" d="M576.828,135.397h1.76l0.088-13.466h-1.848v-0.969h9.924v3.08h-0.969v-2.111h-5.875l-0.043,6.16h5.346
				v0.969h-5.346l-0.045,6.337h6.096l0.176-2.289h1.056l-0.176,3.257h-10.144V135.397z"/>
			<path fill="#FFFFFF" d="M595.857,135.463l4.07-4.049c2.268-2.266,3.631-4.312,3.631-6.446c0-1.98-1.166-3.169-3.168-3.169
				c-3.037,0-3.322,3.059-3.322,3.234h-1.145c0-0.55,0.616-4.29,4.643-4.29c2.86,0,4.225,1.937,4.225,4.137
				c0,2.596-1.914,5.104-4.07,7.173l-3.367,3.234v0.066c0.353-0.022,0.947-0.045,1.761-0.045h6.095v1.057h-9.352V135.463z"/>
			<path fill="#FFFFFF" d="M613.172,120.743c2.993,0,4.775,3.256,4.775,7.613c0,3.828-1.584,8.229-5.215,8.229
				c-3.696,0-5.039-4.048-5.039-7.679C607.693,124.968,609.389,120.743,613.172,120.743z M612.799,135.529
				c2.2,0,3.916-2.729,3.916-7.129c0-4.005-1.518-6.602-3.696-6.602c-2.53,0-4.093,2.839-4.093,7.041
				C608.926,132.404,610.18,135.529,612.799,135.529z"/>
			<path fill="#FFFFFF" d="M625.404,120.743c2.992,0,4.775,3.256,4.775,7.613c0,3.828-1.585,8.229-5.215,8.229
				c-3.697,0-5.039-4.048-5.039-7.679C619.926,124.968,621.62,120.743,625.404,120.743z M625.03,135.529
				c2.2,0,3.917-2.729,3.917-7.129c0-4.005-1.519-6.602-3.697-6.602c-2.529,0-4.092,2.839-4.092,7.041
				C621.158,132.404,622.412,135.529,625.03,135.529z"/>
			<path fill="#FFFFFF" d="M636.778,135.397h1.804l0.045-3.851h-6.844v-0.858l6.887-9.726h1.145l-0.044,9.615h3.081v0.969h-3.081
				l-0.044,3.851h1.959v0.968h-4.907V135.397z M638.67,124.352c0-0.638,0.045-1.254,0.066-1.893h-0.044
				c-0.264,0.506-0.571,1.013-0.924,1.496l-4.753,6.667c0.352-0.021,0.946-0.044,1.76-0.044h3.852L638.67,124.352z"/>
		</g>
		<rect x="162.667" y="45.333" fill="none" width="634.333" height="62.333"/>
		<g enable-background="new    ">
			<path fill="#FFFFFF" d="M174.218,85.582v6.511c1.47,0.77,4.97,1.75,8.891,1.75c6.23,0,10.361-2.801,10.361-8.051
				c0-3.921-2.38-5.461-7.631-6.931l-8.681-2.45c-5.601-1.61-10.641-4.901-10.641-12.742c0-9.66,8.19-14.352,18.482-14.352
				c6.371,0,11.131,1.331,14.841,2.381v10.851h-7.421v-5.88c-1.05-0.42-3.57-1.19-7.351-1.19c-7.281,0-10.291,3.29-10.291,7.07
				c0,4.271,3.15,5.741,7.561,6.861l7.561,1.96c5.601,1.471,11.831,4.551,11.831,13.161c0,9.731-7.21,15.472-18.832,15.472
				c-3.57,0-12.251-0.91-16.521-2.59V85.582H174.218z"/>
			<path fill="#FFFFFF" d="M208.167,93.423h4.97l0.28-37.524h-5.25v-5.74h18.482c6.581,0,9.171,0.63,11.691,2.17
				c3.851,2.311,6.301,6.721,6.301,12.041c0,5.461-2.8,10.642-6.861,13.021c-3.01,1.75-5.391,2.311-9.521,2.311h-7.21l-0.14,13.722
				h6.021v5.74h-18.762V93.423z M226.578,73.96c7.071,0,9.801-3.92,9.801-9.311c0-2.87-1.19-5.25-2.73-6.65
				c-2.03-1.75-4.48-2.101-8.121-2.101h-4.341l-0.14,18.062H226.578z"/>
			<path fill="#FFFFFF" d="M249.675,93.423h4.83l0.28-37.524h-5.11v-5.74h21.772c10.081,0,14.842,5.811,14.842,12.951
				c0,8.471-5.46,12.321-11.691,12.951v0.14c2.73,0.211,4.55,2.521,6.231,5.321l5.32,8.961c1.4,2.31,2.73,2.94,4.34,2.94h1.82v5.74
				h-4.55c-4.131,0-6.021-0.42-8.891-5.181l-6.721-11.411c-2.03-3.5-3.081-4.271-5.391-4.271h-4.2l-0.14,15.122h5.67v5.74h-18.412
				V93.423z M268.647,72.141c5.531,0,9.381-2.94,9.381-8.191c0-5.11-3.15-8.051-8.821-8.051h-6.511l-0.14,16.242H268.647z"/>
			<path fill="#FFFFFF" d="M293.145,93.423h4.2l17.782-43.265h8.681l16.452,43.265h4.34v5.74h-17.922v-5.74h4.48l-4.2-12.182
				h-17.222l-4.55,12.182h5.041v5.74h-17.082V93.423z M320.098,61.219c-0.77-2.17-1.05-3.43-1.26-4.48h-0.14
				c-0.21,0.98-0.49,2.311-1.33,4.48l-5.391,13.862h12.952L320.098,61.219z"/>
			<path fill="#FFFFFF" d="M356.637,93.423h4.9l0.28-14.492l-17.012-23.032h-4.27v-5.74h17.922v5.74h-4.761
				c0.56,0.561,0.98,1.05,1.4,1.681l11.271,15.331L377.5,57.579c0.42-0.631,0.91-1.12,1.47-1.681h-5.53v-5.74h17.082v5.74h-4.341
				l-16.521,23.032l-0.28,14.492h5.181v5.74h-17.922V93.423z"/>
			<path fill="#FFFFFF" d="M428.459,64.51v-7.841c-1.82-0.49-4.621-1.19-8.332-1.19c-11.691,0-17.781,7.141-17.781,19.392
				c0,11.132,6.721,18.973,16.732,18.973c3.359,0,6.93-0.351,8.75-0.7l0.28-8.821h7.001l-0.28,13.372
				c-3.15,1.05-9.451,2.31-15.262,2.31c-17.571,0-25.903-10.921-25.903-24.853c0-15.262,10.222-25.833,26.533-25.833
				c6.16,0,11.972,1.331,15.262,2.661V64.51H428.459z"/>
			<path fill="#FFFFFF" d="M437.91,93.423h4.2l17.782-43.265h8.681l16.452,43.265h4.34v5.74h-17.922v-5.74h4.48l-4.2-12.182h-17.222
				l-4.551,12.182h5.041v5.74H437.91V93.423z M464.863,61.219c-0.771-2.17-1.051-3.43-1.261-4.48h-0.14
				c-0.211,0.98-0.49,2.311-1.33,4.48l-5.391,13.862h12.951L464.863,61.219z"/>
			<path fill="#FFFFFF" d="M493.209,93.423h4.761l0.28-37.524h-6.161v-5.74h12.882l22.682,29.613c1.471,1.96,3.57,5.18,4.9,7.351
				h0.141l-0.28-31.224h-5.46v-5.74h17.081v5.74h-4.761l-0.279,43.265h-6.371L508.121,67.38c-1.4-1.82-2.73-3.78-3.431-5.181
				l-0.14,0.14l0.279,31.084h5.391v5.74h-17.012V93.423z"/>
			<path fill="#FFFFFF" d="M564.896,93.423h4.201l17.781-43.265h8.682l16.451,43.265h4.34v5.74H598.43v-5.74h4.48l-4.199-12.182
				h-17.223l-4.551,12.182h5.041v5.74h-17.082V93.423z M591.85,61.219c-0.77-2.17-1.051-3.43-1.26-4.48h-0.141
				c-0.21,0.98-0.49,2.311-1.33,4.48l-5.391,13.862h12.951L591.85,61.219z"/>
			<path fill="#FFFFFF" d="M619.916,93.423h4.83l0.281-37.524h-5.111v-5.74h21.772c10.081,0,14.842,5.811,14.842,12.951
				c0,8.471-5.46,12.321-11.691,12.951v0.14c2.73,0.211,4.55,2.521,6.231,5.321l5.32,8.961c1.4,2.31,2.73,2.94,4.34,2.94h1.82v5.74
				H658c-4.131,0-6.021-0.42-8.891-5.181l-6.721-11.411c-2.03-3.5-3.08-4.271-5.391-4.271h-4.2l-0.14,15.122h5.67v5.74h-18.412
				V93.423z M638.889,72.141c5.53,0,9.381-2.94,9.381-8.191c0-5.11-3.15-8.051-8.821-8.051h-6.511l-0.14,16.242H638.889z"/>
			<path fill="#FFFFFF" d="M676.139,93.423h5.041l0.28-37.524h-11.411l-0.28,7.141h-7.001l0.28-12.881h44.454l0.281,12.881h-7.002
				l-0.279-7.141h-11.201l-0.279,37.524h5.67v5.74h-18.553V93.423z"/>
		</g>
		<rect x="25.668" y="67.333" width="118.999" height="11"/>
		<rect x="668.748" y="129.195" width="78.333" height="4.469"/>
	</g>
</g>
</svg>
